<?xml version="1.0" standalone="no"?>
<!DOCTYPE svg PUBLIC "-//W3C//DTD SVG 20010904//EN"
 "http://www.w3.org/TR/2001/REC-SVG-20010904/DTD/svg10.dtd">
<svg version="1.0" xmlns="http://www.w3.org/2000/svg"
 width="700.000000pt" height="700.000000pt" viewBox="0 0 700.000000 700.000000"
 preserveAspectRatio="xMidYMid meet">
<metadata>
Created by potrace 1.14, written by Peter Selinger 2001-2017
</metadata>
<g transform="translate(0.000000,700.000000) scale(0.100000,-0.100000)"
fill="#000000" stroke="none">
<path d="M3277 6994 c-1 -1 -42 -5 -90 -9 -48 -3 -96 -8 -106 -10 -10 -2 -42
-6 -72 -10 -30 -4 -54 -8 -54 -8 0 -1 -13 -29 -30 -62 -63 -125 -177 -210
-340 -252 l-70 -18 -33 -120 c-91 -333 -171 -639 -167 -645 13 -21 19 -169 18
-475 -2 -371 5 -451 48 -590 26 -85 58 -151 113 -230 54 -77 100 -122 217
-206 109 -78 177 -146 209 -209 33 -65 90 -218 107 -290 14 -61 18 -219 9
-375 -6 -92 23 -117 93 -80 35 18 32 10 92 235 65 243 62 230 44 198 -8 -15
-26 -30 -39 -34 -32 -8 -83 20 -107 59 -23 38 -55 137 -64 199 -38 261 -57
333 -104 401 -36 52 -66 76 -193 150 -148 87 -209 153 -249 267 -21 62 -22 82
-24 410 -1 292 -14 540 -30 600 -15 56 -22 262 -11 340 23 168 135 315 226
295 88 -19 171 -190 199 -410 6 -44 13 -159 16 -255 13 -443 25 -497 200 -865
101 -212 145 -340 161 -464 3 -25 7 -53 9 -61 2 -8 7 -42 10 -75 4 -33 8 -71
10 -85 18 -121 24 -356 10 -400 -4 -14 -5 -22 -1 -19 6 6 16 42 74 259 22 81
21 169 -3 325 -3 17 -7 48 -10 70 -5 40 -31 188 -40 235 -3 14 -9 50 -15 80
-6 30 -12 66 -15 80 -3 14 -12 63 -20 110 -8 47 -17 95 -19 106 -8 37 -15 87
-26 176 -6 47 -13 104 -16 125 -9 69 -10 256 -2 348 8 98 11 121 32 240 8 44
18 103 22 130 4 28 8 55 9 61 2 6 6 37 9 70 4 32 9 68 11 79 2 11 7 47 11 80
3 33 7 71 9 85 2 14 6 57 9 95 4 39 9 81 11 95 3 19 16 187 17 230 1 20 -5 26
-27 26 -14 0 -27 -1 -28 -2z"/>
<path d="M3359 6972 c-2 -59 -14 -190 -23 -267 -2 -16 -7 -61 -11 -100 -11
-119 -15 -150 -41 -335 -9 -63 -18 -128 -20 -144 -6 -43 -34 -207 -41 -236
-11 -53 -10 -379 2 -475 25 -197 31 -238 75 -470 11 -60 27 -148 36 -195 8
-47 18 -107 24 -135 9 -48 14 -87 25 -185 15 -126 13 -130 91 155 74 266 75
271 69 360 -3 50 -7 104 -10 120 -2 17 -7 62 -9 100 -3 39 -8 95 -11 125 -12
121 -15 149 -22 260 -14 221 -9 491 13 645 12 82 54 316 63 352 6 21 13 52 15
68 9 49 15 78 26 125 47 200 57 246 54 251 -2 4 -71 7 -154 7 l-150 1 -1 -27z"/>
<path d="M3695 6987 c-11 -33 -54 -219 -71 -307 -3 -14 -16 -72 -29 -130 -12
-58 -26 -121 -29 -140 -3 -19 -8 -44 -10 -55 -9 -44 -29 -192 -41 -300 -6 -47
-6 -365 -1 -445 5 -80 16 -219 21 -265 2 -22 7 -71 10 -110 3 -38 8 -90 11
-114 3 -25 7 -70 10 -100 2 -30 6 -56 8 -58 1 -1 26 86 55 195 29 108 117 438
196 732 78 294 150 567 159 605 9 39 35 133 58 210 22 77 40 152 40 167 -1 31
-26 74 -49 82 -23 9 -142 25 -231 32 -43 3 -83 7 -90 9 -7 3 -15 -1 -17 -8z"/>
<path d="M2800 6929 c-128 -26 -216 -63 -228 -98 -18 -46 -45 -159 -41 -170 5
-13 165 40 216 72 53 34 110 93 144 152 16 28 29 53 29 58 0 9 -9 8 -120 -14z"/>
<path d="M4255 6901 c-47 -20 -58 -49 -164 -451 -16 -63 -71 -268 -121 -455
-50 -187 -161 -601 -246 -920 -86 -319 -166 -618 -179 -665 -28 -103 -132
-491 -215 -805 -79 -297 -83 -309 -122 -328 -17 -8 -38 -14 -47 -12 -15 2 -69
10 -146 21 -16 2 -93 13 -170 24 -77 11 -158 22 -180 25 -22 2 -58 7 -80 11
-22 3 -53 8 -70 10 -16 2 -41 6 -55 9 -14 2 -47 7 -75 10 -27 3 -95 12 -150
20 -55 8 -149 21 -210 29 -141 19 -184 26 -215 31 -14 3 -47 7 -75 10 -102 11
-133 28 -149 82 -7 20 49 248 129 533 13 47 60 220 104 385 80 302 128 481
423 1580 89 330 163 617 166 638 5 45 -17 83 -56 98 -28 11 -71 2 -137 -26
-16 -7 -59 -25 -95 -39 -100 -41 -108 -50 -137 -152 -14 -49 -26 -96 -28 -104
-5 -21 -153 -578 -165 -620 -11 -40 -47 -173 -84 -310 -20 -78 -78 -294 -181
-675 -7 -27 -36 -135 -64 -240 -247 -930 -270 -1008 -294 -1033 -30 -29 -52
-30 -207 -7 -121 18 -121 18 -215 30 -33 4 -69 9 -80 11 -11 2 -40 6 -65 9
-25 3 -56 8 -70 10 -14 3 -47 7 -75 10 -27 3 -61 8 -75 10 -14 3 -38 7 -55 9
-249 37 -261 37 -296 -2 -25 -28 -27 -35 -28 -145 -3 -167 14 -198 109 -210
25 -3 78 -11 118 -16 40 -6 94 -13 120 -16 26 -3 54 -8 62 -10 8 -2 38 -7 65
-10 28 -4 61 -8 75 -10 14 -2 45 -6 70 -10 25 -3 56 -8 70 -10 14 -2 45 -7 70
-10 142 -19 230 -34 248 -44 10 -6 25 -24 32 -41 14 -33 9 -58 -81 -390 -17
-63 -44 -162 -59 -220 -15 -58 -72 -267 -125 -465 -53 -198 -105 -393 -116
-433 -26 -98 -28 -114 -16 -137 18 -35 119 -166 161 -211 47 -48 83 -57 124
-28 31 22 42 46 72 164 15 58 64 241 109 408 46 167 84 311 86 320 1 9 13 51
24 92 12 41 44 158 71 260 142 538 150 565 175 589 30 31 53 31 250 2 83 -12
168 -24 190 -26 22 -3 135 -19 250 -35 116 -17 228 -33 250 -36 22 -2 51 -7
65 -9 14 -3 41 -7 60 -9 104 -13 140 -18 215 -30 17 -2 53 -7 80 -11 28 -3 61
-8 75 -10 14 -2 45 -6 70 -10 73 -10 107 -24 124 -50 26 -39 27 -31 -54 -330
-12 -44 -49 -181 -82 -305 -32 -124 -72 -272 -88 -330 -37 -139 -116 -433
-189 -705 -32 -121 -102 -383 -156 -583 -63 -236 -95 -372 -91 -388 11 -43 40
-60 158 -93 179 -49 190 -41 247 170 21 79 78 290 125 469 48 179 107 399 132
490 68 254 243 906 265 990 127 478 142 526 163 548 26 26 58 32 124 21 26 -4
70 -10 97 -13 28 -4 64 -9 80 -12 95 -14 467 -65 505 -70 25 -2 52 -7 60 -9 8
-2 40 -7 70 -10 106 -12 244 -36 261 -46 33 -17 42 -42 53 -144 4 -33 9 -71
11 -85 2 -14 6 -47 10 -75 3 -27 7 -66 10 -85 2 -19 11 -93 20 -165 25 -205
25 -208 30 -245 3 -19 7 -55 10 -80 3 -25 7 -61 10 -80 5 -39 11 -87 20 -170
7 -54 11 -88 19 -152 3 -18 7 -60 11 -93 4 -33 8 -72 11 -86 4 -29 11 -84 19
-164 3 -27 8 -61 10 -75 3 -14 7 -47 10 -75 13 -120 47 -382 52 -403 8 -31 50
-62 87 -62 37 0 242 115 264 148 14 22 14 84 -3 212 -3 19 -7 55 -11 80 -3 25
-8 63 -10 85 -3 22 -9 76 -15 120 -5 44 -12 96 -14 115 -2 19 -9 73 -15 120
-13 107 -18 141 -25 210 -4 30 -8 66 -10 80 -3 24 -7 51 -21 165 -3 28 -7 61
-9 75 -2 14 -7 54 -10 90 -4 36 -9 73 -11 84 -2 10 -6 44 -9 75 -4 31 -8 67
-10 81 -2 14 -11 86 -20 160 -9 74 -18 146 -20 159 -6 35 20 89 49 103 20 8
50 8 128 -2 57 -7 117 -14 133 -16 17 -2 45 -6 63 -9 17 -3 49 -8 69 -11 20
-2 48 -6 62 -9 14 -2 49 -7 76 -10 28 -4 111 -15 185 -26 74 -11 149 -21 165
-24 154 -20 193 -26 215 -30 31 -5 164 -24 205 -29 17 -2 71 -10 120 -17 122
-17 143 -15 172 13 27 27 83 199 83 255 0 74 -27 91 -175 108 -27 3 -57 8 -65
10 -8 2 -40 7 -70 10 -30 3 -116 15 -190 26 -128 19 -170 24 -250 35 -51 7
-112 16 -135 20 -11 2 -40 6 -65 9 -25 3 -58 7 -75 10 -16 3 -48 7 -70 10 -22
3 -103 15 -180 25 -77 11 -156 22 -175 25 -19 3 -51 7 -70 10 -35 6 -47 7
-145 20 -108 13 -128 35 -140 149 -4 38 -9 79 -10 90 -2 12 -11 82 -20 156 -9
74 -18 146 -20 160 -2 14 -6 50 -10 81 -3 31 -7 65 -9 75 -2 11 -7 48 -10 84
-4 36 -8 75 -10 85 -4 20 -15 110 -22 173 -1 18 -15 126 -29 240 -14 114 -28
223 -30 242 -2 19 -9 71 -14 115 -6 44 -13 103 -16 130 -3 28 -7 61 -9 75 -3
14 -7 48 -10 75 -12 117 -16 152 -21 180 -2 17 -7 53 -10 80 -7 54 -23 189
-30 245 -3 19 -7 55 -10 80 -3 25 -9 79 -15 120 -5 41 -12 98 -15 125 -3 28
-7 61 -10 75 -2 14 -7 52 -10 85 -3 33 -7 71 -10 85 -2 14 -7 46 -10 73 -10
89 -16 142 -21 168 -2 14 -6 52 -9 85 -3 32 -7 70 -10 84 -3 14 -7 48 -10 75
-3 28 -10 84 -15 125 -6 41 -12 95 -15 120 -12 104 -21 111 -240 170 -119 32
-121 33 -150 21z m93 -1362 c39 -13 58 -43 66 -99 10 -80 55 -444 61 -500 4
-30 8 -66 10 -80 2 -14 7 -50 10 -80 3 -30 8 -66 10 -80 4 -28 12 -98 20 -167
3 -27 8 -64 10 -83 3 -19 7 -53 10 -75 4 -38 31 -252 40 -325 18 -142 25 -202
30 -250 3 -30 8 -62 10 -70 2 -8 6 -46 10 -83 3 -37 8 -77 10 -88 2 -11 7 -47
10 -80 4 -33 8 -68 9 -77 13 -71 28 -254 22 -276 -9 -35 -59 -65 -100 -60 -48
5 -129 16 -146 19 -27 4 -104 15 -145 20 -22 3 -51 7 -65 10 -14 3 -45 7 -70
10 -25 3 -106 14 -180 24 -74 11 -160 23 -190 26 -93 12 -136 37 -145 85 -5
24 0 41 185 730 67 250 130 487 140 525 11 39 26 95 34 125 8 30 62 231 120
447 57 215 110 401 116 413 9 17 34 33 76 50 1 0 15 -5 32 -11z"/>
<path d="M4250 4951 c-44 -12 -33 -34 42 -82 l73 -47 3 31 c5 42 -17 77 -55
94 -18 7 -34 13 -35 12 -2 -1 -14 -4 -28 -8z"/>
<path d="M4186 4878 c-9 -30 -31 -111 -61 -223 -13 -49 -74 -277 -135 -505
-229 -855 -215 -799 -201 -784 9 9 123 234 159 314 11 25 44 95 72 155 29 61
67 142 85 180 133 284 200 400 268 466 l39 38 -7 68 c-4 37 -8 75 -10 83 -1 8
-5 40 -9 70 -7 52 -9 56 -49 75 -23 11 -63 35 -89 53 -26 17 -49 32 -52 32 -2
0 -7 -10 -10 -22z"/>
<path d="M4370 4443 c-71 -80 -130 -195 -383 -738 -23 -49 -74 -155 -113 -235
-39 -79 -70 -150 -67 -156 6 -17 51 -34 97 -37 43 -2 37 -10 173 243 115 214
239 368 359 448 28 19 40 34 38 47 -2 11 -6 47 -9 82 -3 34 -7 70 -9 80 -2 10
-7 45 -11 78 -4 33 -8 69 -10 80 -1 11 -5 48 -10 83 -4 34 -11 62 -15 62 -4 0
-22 -17 -40 -37z"/>
<path d="M4401 3910 c-67 -55 -145 -145 -200 -230 -59 -90 -229 -405 -222
-411 3 -4 29 -10 56 -14 l50 -6 42 74 c115 201 223 329 330 389 51 29 54 33
49 62 -6 35 -18 131 -20 160 -2 34 -22 28 -85 -24z"/>
<path d="M4434 3667 c-83 -61 -160 -153 -247 -294 -83 -134 -83 -129 6 -139
51 -6 53 -5 71 27 50 84 206 208 264 209 15 0 15 5 2 111 -14 108 -18 129 -29
129 -5 0 -35 -19 -67 -43z"/>
<path d="M4495 3433 c-62 -21 -135 -86 -203 -177 l-23 -31 38 -7 c21 -4 66
-10 101 -13 57 -6 66 -4 107 21 24 16 46 38 47 49 4 23 -15 161 -22 168 -3 2
-23 -2 -45 -10z"/>
<path d="M4843 6712 c-17 -2 -25 -14 -33 -45 -6 -23 -15 -59 -21 -80 -9 -33
-7 -91 6 -177 2 -14 9 -63 14 -109 10 -80 21 -118 21 -74 0 35 79 264 121 351
22 46 39 85 37 87 -29 25 -114 52 -145 47z"/>
<path d="M4977 6573 c-53 -114 -85 -203 -118 -331 l-29 -113 15 -127 c9 -70
18 -138 20 -152 3 -24 10 -78 21 -170 7 -62 11 -95 20 -165 4 -33 7 -64 6 -68
-2 -6 117 -289 179 -424 10 -24 19 -45 19 -48 0 -3 9 -24 20 -48 11 -23 30
-83 44 -133 29 -111 62 -188 76 -179 38 24 75 169 85 335 8 150 14 221 20 250
12 55 7 158 -9 215 -16 54 -88 236 -135 340 -42 93 -112 276 -136 360 -21 70
-27 114 -28 195 -2 101 0 108 36 190 20 47 37 90 37 95 0 9 -43 32 -91 50 -12
4 -24 -13 -52 -72z m156 -872 c19 -21 50 -67 70 -102 90 -163 88 -304 -5 -354
l-37 -20 -28 21 c-62 46 -135 260 -137 397 -1 70 1 81 22 97 30 25 69 11 115
-39z"/>
<path d="M5030 5715 c-13 -15 -15 -96 -4 -150 13 -70 58 -203 82 -248 33 -62
63 -71 103 -31 18 19 30 43 33 69 12 91 -55 254 -140 338 -41 41 -55 45 -74
22z"/>
<path d="M5124 6532 c-54 -120 -55 -124 -55 -220 1 -106 53 -291 131 -467 46
-104 149 -356 166 -405 19 -58 24 -176 12 -265 -4 -27 -10 -90 -13 -140 -10
-159 -16 -218 -31 -290 -15 -72 -55 -152 -80 -162 -26 -10 -72 72 -94 167 -16
68 -36 132 -60 185 -10 22 -37 85 -60 140 -23 55 -52 123 -65 150 -12 28 -26
60 -30 73 -14 45 -16 13 -4 -79 6 -52 24 -128 39 -169 15 -41 42 -131 60 -200
18 -69 59 -204 90 -300 32 -96 71 -223 89 -282 29 -99 75 -194 118 -243 34
-38 112 -96 240 -176 254 -161 334 -250 378 -420 27 -105 18 -290 -19 -397
l-15 -41 57 -7 c99 -14 93 -16 129 66 73 171 85 290 37 385 -41 81 -133 191
-280 335 -212 208 -279 304 -308 444 -13 60 -13 160 -1 216 3 14 8 39 11 55 3
17 19 77 36 135 62 210 87 316 88 366 0 69 -23 144 -78 244 -95 175 -195 408
-262 610 -61 183 -100 382 -94 482 4 79 14 170 19 178 6 10 -7 20 -73 59 l-52
31 -26 -58z"/>
<path d="M1642 6465 l-53 -33 63 -35 c35 -20 81 -53 102 -73 l40 -36 12 48
c20 77 17 102 -15 135 -39 39 -80 37 -149 -6z"/>
<path d="M2602 6487 c-37 -21 -91 -107 -114 -182 -23 -73 -30 -239 -15 -350 3
-27 9 -75 12 -105 3 -30 8 -73 10 -95 15 -134 19 -250 17 -490 -1 -148 3 -295
8 -325 11 -60 48 -140 83 -181 32 -36 121 -100 202 -144 144 -79 218 -182 240
-331 4 -21 8 -46 10 -54 2 -8 7 -37 11 -65 3 -27 8 -59 10 -70 2 -11 7 -36 10
-55 13 -79 48 -162 82 -191 31 -28 36 -29 55 -16 14 9 27 34 35 68 24 102 -2
466 -52 715 -17 83 -69 216 -169 424 -138 290 -162 388 -172 690 -9 257 -15
353 -31 445 -8 49 -18 93 -20 97 -3 4 -7 16 -9 26 -7 41 -71 155 -98 178 -31
26 -69 30 -105 11z"/>
<path d="M5293 6463 c-4 -21 -7 -94 -6 -163 1 -173 37 -327 143 -605 75 -197
126 -310 182 -408 77 -133 100 -202 100 -297 0 -74 -7 -110 -60 -291 -71 -245
-86 -327 -78 -426 12 -152 72 -249 287 -466 193 -194 221 -225 275 -308 83
-128 84 -235 4 -437 -25 -61 -34 -95 -26 -97 6 -2 49 -9 96 -15 93 -12 114
-15 178 -25 107 -17 98 -21 152 72 56 97 83 197 86 309 3 155 -32 260 -162
476 -80 132 -116 178 -258 323 -117 121 -162 182 -208 282 -74 165 -93 333
-73 643 12 177 8 387 -10 515 -2 17 -7 59 -10 95 -7 78 -14 147 -20 178 -2 12
-7 62 -10 110 -14 175 0 146 -119 247 -42 35 -57 44 -53 30 5 -17 18 -81 42
-205 31 -157 22 -235 -32 -274 -62 -45 -119 -11 -171 102 -29 61 -74 214 -86
287 -3 17 -8 46 -12 65 -3 19 -7 80 -8 134 -3 110 0 107 -98 165 l-37 22 -8
-38z"/>
<path d="M1470 6349 c-81 -58 -220 -169 -304 -241 l-39 -34 55 -27 c66 -33
140 -101 195 -182 45 -67 172 -275 195 -318 14 -29 14 -29 38 60 13 48 25 93
26 98 2 6 28 102 58 215 31 113 64 236 73 273 l17 68 -51 47 c-45 42 -146 102
-170 102 -4 0 -46 -28 -93 -61z"/>
<path d="M5461 6304 c3 -142 57 -380 111 -488 24 -47 64 -86 89 -86 10 0 30
10 44 23 49 41 44 119 -30 467 -2 8 -4 18 -4 22 -1 8 -175 136 -197 145 -13 5
-15 -7 -13 -83z"/>
<path d="M1039 5986 c-35 -35 -88 -90 -118 -122 -129 -139 -118 -124 -90 -118
62 14 229 16 280 4 188 -44 272 -166 270 -390 -1 -96 -3 -118 -21 -210 -13
-65 -15 -178 -5 -211 3 -9 7 -26 9 -36 2 -10 9 -38 16 -63 l13 -45 17 65 c94
344 160 599 160 616 0 23 -17 56 -104 201 -129 214 -199 299 -283 341 -74 38
-74 38 -144 -32z"/>
<path d="M5895 5985 c3 -38 8 -89 10 -112 8 -69 14 -124 21 -188 3 -33 8 -73
10 -90 19 -154 20 -242 12 -730 -2 -171 3 -273 16 -294 3 -4 8 -23 11 -41 9
-52 63 -173 107 -241 22 -35 90 -114 151 -177 62 -64 119 -123 127 -132 48
-52 178 -264 227 -371 95 -206 90 -393 -13 -597 -34 -66 -48 -104 -41 -107 38
-11 101 -12 111 -1 22 23 56 75 56 85 0 5 3 11 8 13 14 6 62 117 76 177 18 77
18 187 -1 258 -18 69 -54 141 -142 287 -138 226 -153 272 -151 466 4 301 4
306 -16 440 -25 174 -4 405 53 558 l16 42 -58 95 c-31 52 -61 98 -66 101 -22
13 -92 -184 -105 -293 -13 -102 -7 -297 11 -413 3 -19 8 -62 11 -95 3 -33 9
-78 13 -100 10 -56 5 -167 -9 -209 -29 -90 -123 -88 -169 3 -18 34 -64 180
-77 242 -24 116 -24 253 2 439 22 170 22 351 -1 500 -2 14 -6 41 -9 60 -3 19
-8 46 -12 60 -3 14 -7 78 -8 142 l-3 117 -50 53 c-27 29 -66 69 -87 88 l-38
35 7 -70z"/>
<path d="M6089 5825 c-2 -52 1 -142 6 -166 3 -13 8 -42 11 -64 3 -22 11 -78
18 -125 23 -148 18 -382 -10 -520 -11 -53 -13 -288 -3 -340 16 -83 57 -227 80
-275 26 -56 63 -74 98 -47 15 11 29 35 34 58 8 36 3 205 -7 236 -3 7 -8 47
-11 88 -4 41 -9 89 -11 105 -3 17 -7 95 -9 175 -6 197 16 312 85 452 l27 56
-30 47 -31 48 -15 -34 c-39 -92 -80 -176 -95 -194 -16 -20 -16 -20 -37 5 -18
22 -20 33 -15 90 3 36 14 101 26 145 11 44 20 92 20 107 0 24 -42 83 -122 173
-4 5 -8 -3 -9 -20z"/>
<path d="M2291 5797 c-1 -6 -64 -242 -75 -282 -2 -5 -6 -23 -11 -40 -17 -65
-186 -701 -190 -715 -5 -15 17 -40 263 -295 410 -425 578 -697 607 -985 3 -30
9 -58 13 -62 4 -4 31 -8 60 -10 l54 -3 1 195 c2 227 0 247 -49 377 -79 210
-101 240 -286 377 -165 122 -243 220 -305 385 -59 157 -67 231 -66 656 0 193
-3 364 -7 380 -4 17 -8 27 -9 22z"/>
<path d="M948 5735 c-2 -1 -31 -6 -65 -9 -35 -4 -72 -10 -83 -14 -17 -6 -128
-141 -151 -184 -8 -15 -4 -15 49 -1 88 23 201 39 260 37 155 -7 265 -95 290
-234 9 -48 7 -203 -2 -270 -11 -69 -9 -110 5 -180 21 -105 75 -260 90 -260 4
0 13 27 22 60 14 57 14 65 -9 153 -35 134 -39 206 -19 317 23 127 26 289 6
363 -29 107 -122 193 -231 212 -39 7 -157 14 -162 10z"/>
<path d="M6243 5649 c-1 -12 -11 -62 -23 -111 -25 -108 -30 -188 -11 -188 5 0
11 6 14 13 3 6 26 57 51 111 l45 99 -19 26 c-11 14 -28 36 -38 49 l-18 23 -1
-22z"/>
<path d="M810 5527 c-25 -5 -80 -18 -122 -29 l-76 -20 -49 -76 c-27 -43 -60
-95 -73 -117 l-25 -40 27 17 c34 22 218 84 288 96 178 32 303 -30 340 -169 7
-24 13 -109 15 -189 2 -146 4 -164 30 -253 13 -45 117 -263 134 -279 4 -5 13
18 20 50 12 56 12 59 -18 119 -65 131 -99 324 -78 453 11 72 10 191 -3 245
-21 92 -78 157 -161 185 -57 20 -174 23 -249 7z"/>
<path d="M825 5338 c-97 -14 -111 -17 -200 -48 -49 -17 -112 -45 -140 -64 -44
-29 -56 -46 -107 -147 -53 -107 -98 -205 -98 -215 0 -5 141 108 238 190 105
89 269 137 363 106 49 -16 101 -74 118 -130 6 -22 14 -72 17 -112 5 -80 27
-168 73 -298 42 -119 45 -155 16 -188 -22 -25 -29 -27 -97 -26 -53 1 -94 9
-148 29 -157 58 -198 61 -340 21 -113 -32 -159 -36 -211 -18 -76 25 -108 77
-109 176 l-1 41 -15 -40 c-41 -112 -84 -279 -74 -289 17 -17 138 -10 235 14
145 35 229 49 260 45 11 -2 45 -6 75 -10 30 -3 118 -24 195 -46 77 -23 149
-43 160 -46 34 -9 199 -13 211 -5 6 4 19 37 28 74 l17 67 -61 121 c-62 123
-94 201 -104 255 -4 17 -9 41 -12 55 -3 14 -7 93 -7 175 -2 138 -4 154 -27
200 -45 89 -138 130 -255 113z"/>
<path d="M6536 5138 c-9 -29 -18 -64 -21 -78 -3 -14 -7 -36 -10 -50 -22 -101
-20 -284 5 -455 5 -33 7 -156 5 -272 -2 -165 0 -226 12 -270 16 -63 81 -196
138 -281 155 -236 190 -389 134 -597 -13 -49 -68 -158 -103 -205 -30 -39 -26
-44 39 -54 150 -22 183 -17 208 37 26 58 28 149 2 107 -10 -17 -51 -11 -69 9
-23 25 -23 87 -1 171 28 107 21 268 -19 438 -5 21 -65 161 -137 318 -32 71
-50 128 -63 204 -11 64 -16 94 -46 245 -42 216 -41 208 -45 355 -5 136 1 182
32 277 17 51 16 53 -7 103 -13 27 -27 50 -30 50 -4 0 -15 -24 -24 -52z"/>
<path d="M770 5142 c-102 -14 -208 -71 -298 -159 -12 -12 -58 -49 -101 -82
-62 -47 -85 -72 -105 -113 -47 -97 -56 -226 -19 -277 39 -53 113 -73 193 -51
229 61 246 61 408 5 110 -39 193 -47 231 -24 19 12 22 20 17 56 -3 23 -17 75
-32 115 -40 111 -64 207 -70 273 -17 206 -80 278 -224 257z m51 -188 c47 -43
106 -177 113 -256 10 -118 -59 -175 -138 -114 -43 32 -66 33 -150 1 -77 -29
-106 -31 -146 -10 -85 44 -58 156 67 282 106 108 202 144 254 97z"/>
<path d="M720 4943 c-91 -35 -236 -195 -242 -268 -3 -44 3 -62 25 -74 39 -21
59 -19 137 9 90 32 117 32 169 -4 47 -33 73 -29 91 15 18 42 7 121 -26 201
-43 106 -92 144 -154 121z"/>
<path d="M6616 5013 c-35 -107 -40 -288 -12 -438 2 -11 6 -36 10 -55 3 -19 8
-46 11 -60 8 -40 44 -233 49 -260 19 -116 47 -191 146 -404 67 -144 86 -224
95 -401 5 -91 2 -125 -15 -198 -21 -90 -21 -144 1 -158 34 -21 74 41 84 131 4
36 9 156 11 268 3 187 2 207 -17 255 -23 56 -28 145 -11 187 6 15 6 47 1 80
-4 30 -10 69 -13 85 -2 17 -5 37 -5 47 -1 9 -21 28 -46 43 -119 69 -198 187
-220 328 -27 166 -26 365 1 458 2 9 -9 44 -25 78 l-29 62 -16 -48z"/>
<path d="M4976 4950 c3 -30 8 -66 9 -80 2 -14 7 -52 10 -85 11 -93 15 -127 20
-165 3 -19 7 -54 10 -77 3 -24 7 -62 10 -85 3 -24 7 -59 10 -78 2 -19 7 -60
10 -90 4 -30 10 -84 15 -120 5 -36 12 -92 16 -125 3 -33 11 -66 18 -74 6 -8
84 -63 172 -122 198 -132 258 -180 352 -277 85 -88 134 -164 157 -245 27 -95
16 -176 -36 -255 -16 -24 -29 -45 -29 -47 0 -5 42 -13 105 -21 28 -3 53 -8 56
-10 24 -14 59 127 65 256 7 170 -37 292 -146 400 -36 36 -90 81 -120 101 -30
20 -107 70 -170 112 -145 95 -181 125 -229 198 -43 65 -71 131 -100 242 -10
39 -47 158 -81 262 -34 105 -77 246 -96 315 -26 95 -32 112 -28 70z"/>
<path d="M6700 4862 c-8 -60 -6 -292 3 -352 17 -126 52 -205 121 -278 40 -42
103 -88 111 -81 2 3 -1 27 -7 54 -7 35 -20 59 -43 80 -69 65 -117 212 -117
364 0 78 -5 109 -26 166 -32 88 -37 93 -42 47z"/>
<path d="M1997 4695 c-3 -11 -24 -90 -47 -175 -23 -85 -43 -160 -45 -167 -2
-6 29 -38 68 -69 110 -89 281 -259 366 -364 92 -114 157 -216 231 -358 l55
-107 115 -16 c73 -11 117 -14 121 -8 8 14 -17 151 -41 228 -28 86 -90 208
-159 311 -108 163 -218 290 -522 604 -113 116 -137 137 -142 121z"/>
<path d="M6793 4598 c7 -86 39 -196 73 -249 40 -63 44 -53 17 43 -36 133 -83
278 -90 278 -3 0 -3 -33 0 -72z"/>
<path d="M430 4334 c-174 -41 -212 -46 -276 -41 l-62 6 -7 -37 c-3 -20 -8 -45
-11 -54 -8 -28 25 -24 306 38 55 12 232 11 302 -3 40 -7 145 -32 233 -54 88
-23 167 -42 175 -44 8 -2 33 -7 55 -12 64 -14 67 -12 85 54 l17 61 -66 0
c-100 -1 -135 5 -313 57 -29 9 -60 18 -68 20 -131 38 -236 40 -370 9z"/>
<path d="M1877 4247 c-43 -154 -147 -549 -150 -574 -5 -33 18 -77 47 -92 22
-11 29 -12 211 -37 61 -8 121 -17 135 -19 65 -10 307 -43 365 -51 17 -2 47 -6
67 -10 l38 -6 -16 38 c-97 231 -315 511 -569 728 -113 96 -108 95 -128 23z"/>
<path d="M290 4200 c-74 -15 -155 -31 -179 -34 -24 -3 -45 -7 -46 -8 -2 -2 -6
-21 -9 -44 l-7 -41 68 13 c37 8 84 16 103 20 19 3 55 10 80 14 78 15 269 10
377 -10 96 -17 414 -91 475 -110 25 -8 27 -6 37 35 15 59 14 65 -9 65 -11 0
-109 23 -218 51 -353 91 -443 97 -672 49z"/>
<path d="M378 4105 c-2 -1 -26 -5 -55 -9 -78 -9 -267 -46 -275 -54 -4 -4 -10
-36 -14 -71 l-6 -63 28 6 c105 21 179 26 344 21 102 -3 208 -7 235 -10 177
-16 258 -29 394 -61 57 -13 105 -23 107 -22 5 6 33 122 30 126 -8 7 -430 108
-491 117 -22 3 -53 8 -70 12 -31 6 -222 13 -227 8z"/>
<path d="M5104 3895 c4 -28 9 -64 11 -80 6 -37 97 -122 252 -237 229 -168 275
-219 287 -310 5 -45 -23 -127 -62 -182 l-31 -43 60 -10 c60 -10 60 -10 86 21
43 51 66 115 66 181 -2 179 -154 357 -498 584 -77 51 -148 100 -158 109 -18
16 -19 15 -13 -33z"/>
<path d="M257 3914 c-1 -1 -36 -4 -77 -7 -86 -8 -150 -23 -150 -38 0 -15 51
-59 69 -60 9 0 25 -2 36 -4 11 -2 40 -7 65 -10 25 -3 73 -10 108 -16 34 -5
109 -11 166 -14 96 -4 155 -9 231 -21 76 -12 94 -16 160 -34 167 -45 221 -34
250 49 8 25 12 48 8 52 -9 8 -153 43 -238 58 -57 10 -92 14 -195 26 -73 8
-427 24 -433 19z"/>
<path d="M5125 3718 c2 -13 6 -41 9 -63 2 -22 8 -64 12 -93 4 -30 8 -64 9 -75
1 -12 3 -25 4 -29 0 -4 22 -22 48 -39 123 -85 168 -150 160 -229 -3 -26 -13
-62 -22 -80 -9 -17 -15 -33 -13 -35 2 -2 23 -6 48 -8 25 -3 70 -9 101 -12 l56
-7 35 53 c108 166 79 235 -179 425 -65 48 -150 116 -189 151 -40 35 -74 63
-77 63 -3 0 -4 -10 -2 -22z"/>
<path d="M5165 3398 c4 -12 8 -44 21 -178 8 -73 29 -115 65 -130 39 -16 55 -8
75 37 32 73 17 143 -42 198 -53 50 -102 85 -118 85 -3 0 -3 -6 -1 -12z"/>
<path d="M73 3175 c-14 -10 -24 -31 -28 -59 -14 -93 49 -224 169 -349 168
-176 321 -256 516 -269 l45 -3 47 173 47 172 -47 43 c-77 69 -103 99 -148 169
-45 70 -39 67 -154 83 -19 3 -114 16 -210 30 -206 29 -209 29 -237 10z m264
-131 c98 -54 173 -139 168 -189 -5 -52 -43 -79 -108 -78 -102 2 -174 44 -239
139 -31 46 -36 61 -34 100 2 33 8 50 22 58 52 30 94 24 191 -30z"/>
<path d="M165 3056 c-59 -43 48 -215 150 -241 63 -16 124 -14 146 4 55 44 -21
145 -163 216 -76 38 -104 42 -133 21z"/>
<path d="M691 3070 c22 -40 96 -123 160 -178 l27 -23 16 68 c31 124 7 147
-173 169 l-53 7 23 -43z"/>
<path d="M1565 2968 c-31 -18 -42 -38 -59 -105 l-16 -61 51 -124 c69 -168 129
-281 195 -369 83 -110 116 -181 122 -261 4 -59 1 -75 -22 -122 -45 -91 -129
-149 -261 -179 -89 -20 -212 -10 -340 28 -18 5 -23 -3 -44 -85 -13 -50 -22
-92 -20 -94 27 -20 208 -112 280 -141 133 -54 219 -75 335 -82 123 -7 215 8
301 50 150 72 222 205 191 351 -15 76 -49 138 -144 271 -47 66 -98 145 -114
175 -48 96 -121 279 -181 459 -53 156 -97 251 -133 280 -20 17 -118 23 -141 9z"/>
<path d="M1752 2943 c18 -21 69 -116 72 -135 5 -29 81 -251 123 -358 67 -169
121 -271 213 -400 95 -133 122 -184 140 -259 43 -183 -59 -345 -262 -417 -60
-21 -124 -29 -228 -27 -161 2 -337 56 -547 169 l-102 55 -16 -53 c-8 -28 -15
-60 -15 -70 0 -29 373 -268 548 -349 65 -31 217 -87 257 -95 11 -2 49 -10 85
-18 135 -29 346 -10 465 43 42 18 42 19 70 122 15 57 31 118 36 134 27 87 81
303 81 321 0 12 -28 63 -63 113 -35 50 -90 128 -121 174 -94 135 -187 363
-294 717 -36 119 -77 235 -92 260 -29 48 -43 53 -152 64 -30 3 -82 10 -115 16
-33 5 -69 10 -79 10 -17 0 -18 -2 -4 -17z"/>
<path d="M44 2931 c3 -5 8 -26 12 -47 10 -70 53 -254 64 -273 22 -42 167 -150
305 -227 106 -59 278 -135 285 -127 4 5 17 49 30 98 13 50 25 95 27 101 2 7
-19 13 -59 17 -150 15 -265 63 -388 162 -105 85 -166 150 -222 237 -24 37 -47
67 -51 67 -5 1 -6 -3 -3 -8z"/>
<path d="M2136 2863 c13 -26 51 -138 83 -248 117 -392 210 -607 339 -780 32
-44 75 -104 95 -133 l36 -53 11 43 c6 24 22 83 36 131 28 101 33 81 -58 238
-177 304 -203 444 -132 693 14 48 24 89 22 91 -3 2 -186 30 -273 41 -16 2 -43
6 -60 8 -16 3 -51 8 -76 11 l-47 7 24 -49z"/>
<path d="M2590 2814 c-36 -94 -53 -185 -53 -284 -1 -96 2 -113 34 -196 39
-102 187 -376 200 -369 4 3 10 22 14 43 5 29 -1 53 -24 108 -62 147 -88 287
-68 369 21 83 71 134 202 205 79 43 79 42 55 73 -22 28 -61 41 -145 51 -27 3
-59 8 -70 10 -11 2 -46 7 -77 10 -57 7 -58 7 -68 -20z"/>
<path d="M1437 2605 c-34 -127 -38 -150 -29 -191 17 -81 0 -146 -53 -195 -27
-26 -36 -52 -95 -273 l-37 -143 46 -12 c25 -6 57 -14 71 -17 60 -14 201 -13
252 3 164 48 244 134 241 260 -1 76 -29 137 -121 262 -70 96 -174 298 -211
414 -7 20 -16 37 -19 37 -4 0 -24 -65 -45 -145z"/>
<path d="M2880 2654 c-175 -104 -204 -197 -133 -429 18 -58 53 -139 58 -133 3
3 145 529 158 586 3 12 2 22 -1 21 -4 0 -41 -20 -82 -45z"/>
<path d="M3618 2670 c-31 -24 -39 -43 -78 -195 -17 -66 -56 -211 -86 -322 -50
-183 -54 -209 -47 -260 4 -32 7 -110 7 -173 -1 -96 -8 -144 -43 -295 -22 -99
-43 -198 -47 -220 -3 -22 -9 -58 -13 -81 -4 -22 -7 -85 -6 -140 4 -190 66
-303 186 -338 65 -20 97 -20 177 -1 219 52 416 234 521 480 26 63 92 267 105
327 92 420 192 661 339 813 l48 50 -6 70 c-3 38 -8 71 -10 73 -14 14 -144
-109 -193 -182 -64 -95 -144 -283 -177 -416 -2 -8 -11 -37 -19 -65 -8 -27 -23
-81 -35 -120 -24 -85 -80 -226 -112 -280 -54 -96 -146 -191 -236 -245 -164
-100 -305 -85 -367 39 -32 63 -37 86 -40 203 -3 97 7 187 44 368 10 52 22 111
25 130 4 19 9 139 11 265 6 297 18 361 102 528 7 15 -26 6 -50 -13z"/>
<path d="M3678 2645 c-30 -50 -64 -144 -73 -205 -4 -25 -8 -144 -10 -266 -1
-121 -5 -234 -9 -250 -3 -16 -8 -45 -11 -64 -3 -19 -12 -66 -20 -105 -47 -232
-57 -386 -30 -489 21 -82 43 -113 93 -138 144 -69 394 86 504 313 55 113 70
155 147 414 65 219 109 325 177 426 41 63 124 149 189 195 28 21 28 22 12 47
-10 15 -33 30 -54 36 -33 9 -42 8 -75 -14 -143 -95 -214 -210 -323 -525 -71
-207 -114 -288 -190 -366 -119 -121 -231 -140 -290 -51 -40 62 -52 281 -20
397 2 8 6 31 9 50 14 96 108 533 121 564 8 19 15 40 15 45 0 8 -55 19 -121 26
-9 1 -27 -16 -41 -40z"/>
<path d="M3859 2634 c-12 -31 -55 -199 -63 -249 -3 -16 -24 -122 -47 -235 -67
-326 -59 -523 21 -565 16 -8 39 -15 51 -15 36 0 108 41 156 90 87 86 119 147
195 370 102 296 165 404 303 518 22 18 36 31 30 30 -9 -2 -97 8 -157 18 -20 3
-36 -5 -70 -39 -90 -87 -124 -154 -167 -334 -16 -68 -42 -146 -58 -175 -25
-46 -100 -118 -123 -118 -17 0 -60 106 -68 166 -19 140 18 321 102 495 14 29
25 54 23 55 -1 1 -28 5 -59 9 -57 7 -58 7 -69 -21z"/>
<path d="M3972 2548 c-68 -159 -86 -238 -86 -383 0 -83 4 -109 23 -153 l24
-53 26 18 c39 25 49 37 76 91 21 42 55 161 72 251 9 53 73 169 123 224 29 32
51 60 49 62 -2 1 -26 6 -54 9 -27 3 -79 10 -115 16 -36 5 -72 10 -81 10 -12 0
-30 -29 -57 -92z"/>
<path d="M150 2493 c44 -159 46 -162 145 -221 99 -58 365 -195 369 -190 5 6
36 124 36 136 0 7 -5 12 -11 12 -6 0 -76 32 -154 70 -155 76 -308 171 -367
228 l-38 36 20 -71z"/>
<path d="M5349 2439 c-32 -12 -58 -60 -54 -97 2 -15 6 -56 10 -92 8 -86 13
-100 33 -100 39 0 273 42 337 61 116 34 282 137 258 160 -5 4 -35 10 -68 13
-33 4 -71 9 -85 11 -14 2 -77 11 -140 20 -63 9 -125 18 -136 20 -68 11 -132
13 -155 4z"/>
<path d="M1363 2326 c-13 -44 -21 -81 -20 -83 2 -1 14 15 26 37 16 28 21 52
19 82 -3 42 -3 42 -25 -36z"/>
<path d="M5939 2325 c-128 -110 -284 -164 -579 -199 -39 -5 -40 -11 -25 -106
2 -14 4 -28 4 -31 1 -4 22 -2 49 3 46 8 231 11 302 4 89 -9 367 -53 379 -60 3
-2 35 -7 70 -10 36 -4 67 -9 71 -11 19 -12 355 -27 392 -17 9 2 21 16 27 31 5
14 21 50 35 79 l26 53 -48 -7 c-73 -10 -233 -12 -295 -4 -216 30 -316 128
-262 257 8 20 14 37 12 39 -1 2 -18 6 -37 9 -19 3 -42 8 -51 11 -10 3 -38 -14
-70 -41z"/>
<path d="M6119 2316 c-45 -75 -19 -152 65 -194 95 -48 311 -67 457 -42 61 11
66 14 77 44 16 43 15 88 -2 111 -13 18 -16 18 -93 -8 -44 -14 -95 -29 -114
-32 -19 -3 -41 -8 -50 -11 -32 -9 -144 -6 -172 5 -15 6 -30 18 -34 27 -5 13 6
60 23 100 3 6 -24 14 -67 20 l-72 10 -18 -30z"/>
<path d="M6290 2278 c-16 -37 -17 -45 -5 -57 19 -20 125 -22 205 -4 85 18 88
19 135 36 37 13 38 14 15 20 -14 3 -63 11 -110 17 -47 6 -96 13 -110 15 -118
18 -109 20 -130 -27z"/>
<path d="M241 2228 c53 -137 49 -133 219 -219 85 -43 157 -79 160 -79 3 0 12
27 21 60 l16 60 -93 50 c-51 28 -95 50 -97 50 -3 0 -57 29 -121 65 -64 36
-118 65 -121 65 -3 0 4 -24 16 -52z"/>
<path d="M4639 2234 c-82 -88 -155 -220 -208 -374 -13 -36 -51 -175 -86 -310
-72 -277 -109 -390 -167 -505 -70 -140 -154 -236 -278 -319 -129 -86 -238
-122 -349 -114 -140 10 -215 81 -256 238 -15 60 -21 206 -11 270 3 14 7 43 11
65 3 22 26 130 50 240 24 110 45 223 45 250 3 102 0 175 -8 175 -4 0 -52 -165
-106 -367 -54 -203 -129 -482 -167 -622 -38 -140 -66 -257 -64 -262 3 -4 31
-15 63 -25 78 -25 252 -114 318 -164 112 -84 158 -148 157 -220 0 -56 -35
-124 -85 -165 l-33 -26 164 6 c90 3 178 7 195 10 17 2 56 7 85 10 30 3 57 8
59 10 3 2 -5 28 -16 57 -34 86 -41 126 -38 207 6 145 105 372 252 576 93 130
128 190 156 273 19 53 61 224 73 292 3 19 12 63 20 96 8 34 16 73 19 87 31
171 120 361 220 472 52 57 54 63 42 129 l-11 59 -46 -49z"/>
<path d="M4647 2046 c-112 -137 -150 -240 -237 -660 -55 -262 -90 -342 -244
-556 -141 -197 -229 -413 -228 -561 1 -62 38 -199 61 -222 16 -16 355 48 345
64 -22 35 -42 151 -41 240 0 124 16 200 74 349 25 62 42 103 103 236 66 144
100 276 125 489 15 126 60 259 116 347 17 26 28 51 26 55 -3 4 -8 33 -11 63
-3 30 -9 82 -12 114 -13 119 -13 119 -77 42z"/>
<path d="M320 2043 c1 -4 20 -46 43 -92 42 -84 43 -84 121 -124 76 -38 78 -39
97 -21 10 11 21 37 24 59 l6 40 -138 70 c-167 85 -153 78 -153 68z"/>
<path d="M5459 1976 c-2 -2 -29 -6 -59 -10 -30 -3 -56 -6 -56 -6 -2 0 5 -66
11 -105 l5 -31 103 0 c118 -1 187 -18 292 -72 58 -30 99 -65 243 -211 96 -97
185 -190 199 -208 l25 -32 40 50 40 51 -21 72 c-33 113 -26 173 27 229 47 50
124 82 212 89 27 2 39 9 52 33 9 16 17 33 18 37 0 3 -53 7 -118 7 -65 1 -127
3 -138 5 -10 2 -50 7 -89 11 -38 4 -72 8 -75 10 -3 1 -27 6 -55 9 -27 4 -57 9
-65 11 -17 5 -38 8 -180 30 -58 9 -116 18 -130 21 -34 6 -276 15 -281 10z"/>
<path d="M436 1809 c8 -13 74 -42 81 -35 5 4 -69 46 -82 46 -3 0 -3 -5 1 -11z"/>
<path d="M5368 1795 c-5 -6 -2 -64 7 -100 3 -15 20 -24 71 -38 140 -36 284
-128 434 -277 106 -104 160 -173 180 -226 l11 -28 32 35 c98 110 98 109 91
132 -4 12 -52 67 -108 123 -55 55 -133 135 -171 176 -79 85 -148 132 -250 173
-58 23 -88 28 -181 31 -61 2 -113 2 -116 -1z"/>
<path d="M6462 1759 c-67 -13 -137 -60 -162 -108 -23 -45 -5 -200 25 -204 10
-2 146 198 193 282 26 46 26 47 -56 30z"/>
<path d="M4728 1738 c-35 -56 -78 -185 -92 -278 -3 -19 -12 -84 -21 -145 -26
-180 -51 -257 -145 -460 -76 -163 -116 -276 -137 -385 -24 -128 13 -371 55
-355 8 3 44 13 79 21 34 9 63 19 63 23 0 3 -5 22 -10 41 -6 19 -13 55 -16 80
-3 25 -8 49 -11 53 -3 4 -5 55 -5 112 1 102 20 229 48 306 7 22 11 39 9 39 -8
0 75 231 119 331 25 55 65 133 91 174 l46 74 -11 83 c-16 123 -19 147 -25 208
-11 105 -15 113 -37 78z"/>
<path d="M5387 1642 c-2 -4 -2 -29 1 -57 4 -49 5 -50 64 -85 136 -79 269 -266
358 -502 18 -49 36 -88 39 -88 12 0 201 191 201 203 0 23 -60 115 -112 173
-128 141 -255 243 -381 303 -59 28 -166 61 -170 53z"/>
<path d="M5404 1449 c14 -119 18 -132 47 -157 55 -46 119 -189 134 -299 4 -27
9 -59 11 -73 2 -14 7 -56 10 -95 8 -91 9 -95 17 -98 8 -3 145 104 177 138 l23
24 -28 78 c-83 231 -223 434 -349 508 l-48 28 6 -54z"/>
<path d="M1116 1402 c-2 -4 -11 -32 -19 -63 l-14 -56 46 -31 c25 -18 60 -43
76 -57 17 -13 35 -28 40 -33 44 -36 212 -151 265 -182 161 -93 362 -162 543
-187 131 -18 382 -3 408 24 13 14 56 193 47 193 -5 0 -19 -5 -31 -11 -26 -14
-109 -38 -157 -44 -315 -44 -635 69 -1107 390 -51 35 -95 60 -97 57z"/>
<path d="M4777 1283 c-33 -53 -79 -145 -111 -223 -15 -36 -31 -74 -35 -85 -31
-71 -90 -281 -107 -380 -8 -48 -10 -214 -2 -270 9 -74 31 -155 41 -155 5 0 27
5 49 12 36 10 39 14 32 37 -39 145 -51 330 -30 456 29 173 117 410 192 518 10
16 10 113 -1 125 -2 2 -15 -14 -28 -35z"/>
<path d="M5424 1262 c2 -4 7 -30 11 -57 3 -28 7 -63 9 -80 3 -16 7 -61 11
-100 4 -38 9 -72 10 -75 2 -3 6 -37 10 -75 3 -39 11 -84 16 -102 11 -35 47
-63 80 -63 21 0 21 3 15 83 -4 45 -9 91 -11 102 -2 11 -7 41 -10 67 -14 121
-96 308 -134 308 -7 0 -10 -4 -7 -8z"/>
<path d="M1060 1203 c-20 -79 -23 -97 -24 -128 -1 -28 4 -31 144 -93 80 -35
192 -85 250 -111 58 -27 155 -63 215 -81 328 -95 493 -162 563 -225 98 -88 39
-182 -138 -218 l-64 -13 70 -30 c139 -62 132 -62 202 -18 34 22 62 46 62 54 1
8 27 111 59 228 l58 214 -31 -6 c-129 -23 -292 -24 -411 -2 -11 2 -38 6 -60
10 -81 14 -241 69 -350 120 -124 59 -211 115 -392 253 -67 51 -126 93 -131 93
-5 0 -15 -21 -22 -47z"/>
<path d="M4806 1148 c-43 -66 -127 -279 -141 -357 -3 -19 -8 -37 -10 -41 -2
-3 -7 -29 -11 -56 -3 -27 -8 -58 -11 -69 -5 -26 -5 -223 0 -233 3 -4 8 -29 11
-57 10 -76 25 -125 39 -125 13 0 110 36 138 51 14 7 15 15 8 46 -5 21 -11 94
-14 163 -4 127 7 221 39 324 8 27 14 52 12 55 -2 3 -7 33 -10 66 -9 81 -14
122 -22 175 -4 25 -6 53 -6 63 1 23 -5 22 -22 -5z"/>
<path d="M1097 956 c52 -48 184 -162 242 -209 149 -121 476 -326 599 -376 59
-25 215 11 264 59 70 70 15 126 -227 231 -11 5 -103 34 -205 65 -249 75 -256
78 -341 117 -143 67 -374 167 -383 167 -4 0 19 -24 51 -54z"/>
<path d="M4865 734 c-4 -16 -9 -36 -12 -44 -15 -47 -20 -185 -9 -301 10 -110
18 -124 52 -85 25 28 26 33 20 110 -4 45 -9 95 -11 111 -3 17 -7 44 -10 60 -2
17 -8 62 -11 100 -7 81 -11 88 -19 49z"/>
<path d="M3026 553 c-21 -69 -55 -208 -51 -211 2 -2 26 -8 52 -13 72 -13 154
-58 176 -98 37 -62 18 -123 -54 -175 -22 -15 -39 -30 -37 -31 4 -4 109 -14
217 -20 72 -4 88 -2 117 15 75 47 122 130 110 195 -19 99 -212 244 -440 329
-81 31 -83 31 -90 9z"/>
<path d="M2950 269 c-6 -24 -15 -57 -20 -73 -13 -38 -13 -92 0 -116 14 -26 43
-41 94 -46 34 -4 50 1 90 27 85 57 106 121 55 175 -27 29 -106 63 -163 70
l-45 7 -11 -44z"/>
<path d="M2280 260 c-9 -6 -10 -10 -3 -10 6 0 15 5 18 10 8 12 4 12 -15 0z"/>
</g>
</svg>
